<svg width="168" height="56" viewBox="0 0 168 56" fill="none" xmlns="http://www.w3.org/2000/svg">
<g clip-path="url(#clip0_6973_3321)">
<path d="M154.622 5.99297e-05H13.386C12.8712 5.99297e-05 12.3626 5.99298e-05 11.8491 0.00285993C11.4193 0.00565993 10.9929 0.0137939 10.559 0.0206399C9.61624 0.0317025 8.67574 0.114407 7.74562 0.268034C6.81682 0.425006 5.91711 0.720942 5.07692 1.14583C4.23776 1.57432 3.471 2.13109 2.80445 2.79596C2.1344 3.45895 1.57586 4.22528 1.15031 5.06548C0.723586 5.90401 0.427694 6.80257 0.272854 7.73013C0.116542 8.65652 0.0324285 9.59359 0.0212695 10.5329C0.00824107 10.9622 0.00686522 11.3928 0 11.8221V44.1821C0.00686522 44.6168 0.00824107 45.0379 0.0212695 45.4728C0.0324319 46.4121 0.116545 47.3491 0.272854 48.2754C0.427266 49.2035 0.723176 50.1026 1.15031 50.9414C1.57567 51.7789 2.13428 52.5422 2.80445 53.2015C3.46847 53.8693 4.23573 54.4264 5.07692 54.8516C5.9171 55.2777 6.81671 55.5754 7.74562 55.7348C8.67589 55.8872 9.6163 55.9699 10.559 55.9823C10.9929 55.9918 11.4193 55.9973 11.8491 55.9973C12.3625 56.0001 12.8712 56.0001 13.386 56.0001H154.622C155.126 56.0001 155.639 56.0001 156.143 55.9973C156.571 55.9973 157.01 55.9918 157.438 55.9823C158.379 55.9706 159.317 55.8878 160.246 55.7348C161.177 55.5742 162.08 55.2766 162.924 54.8516C163.765 54.4262 164.531 53.8691 165.195 53.2015C165.863 52.5396 166.423 51.7769 166.854 50.9414C167.278 50.102 167.571 49.203 167.723 48.2754C167.88 47.349 167.967 46.4121 167.984 45.4728C167.989 45.0379 167.989 44.6168 167.989 44.1821C168 43.6735 168 43.1677 168 42.6508V13.3506C168 12.8379 168 12.3294 167.989 11.8221C167.989 11.3928 167.989 10.9622 167.984 10.5329C167.967 9.59345 167.88 8.65659 167.723 7.73008C167.57 6.80305 167.277 5.90456 166.854 5.06543C165.987 3.38133 164.613 2.0105 162.924 1.14571C162.08 0.721854 161.177 0.425997 160.246 0.267908C159.317 0.113604 158.379 0.0308708 157.438 0.0204439C157.01 0.0136119 156.571 0.00540793 156.143 0.00267793C155.639 -0.00012207 155.126 -0.00012207 154.622 -0.00012207V5.99297e-05Z" fill="#A6A6A6"/>
<path d="M11.8569 54.775C11.4291 54.775 11.0117 54.7695 10.5873 54.76C9.70814 54.7486 8.83103 54.6723 7.96317 54.5317C7.15393 54.3927 6.36999 54.1342 5.63722 53.7646C4.91117 53.3981 4.24895 52.9176 3.67593 52.3414C3.09462 51.7719 2.61065 51.1115 2.2432 50.3863C1.87171 49.6563 1.61461 48.8738 1.48087 48.0662C1.33644 47.1983 1.2583 46.3208 1.24712 45.4412C1.23822 45.1459 1.22656 44.1628 1.22656 44.1628V11.8221C1.22656 11.8221 1.23897 10.8541 1.24719 10.5697C1.25789 9.69145 1.33558 8.81529 1.47958 7.9488C1.61357 7.13893 1.87086 6.35422 2.24256 5.62186C2.60865 4.8971 3.08994 4.23618 3.66774 3.66473C4.2449 3.08785 4.90924 2.60482 5.63653 2.23327C6.36762 1.86491 7.15007 1.6082 7.95768 1.47175C8.82839 1.32975 9.70855 1.25297 10.5908 1.24207L11.8576 1.22498H156.137L157.419 1.24276C158.294 1.25311 159.166 1.32921 160.028 1.47038C160.844 1.60854 161.635 1.86704 162.374 2.23737C163.831 2.98616 165.017 4.1708 165.765 5.62527C166.13 6.35258 166.384 7.13089 166.516 7.93376C166.662 8.80736 166.743 9.69041 166.76 10.5759C166.764 10.9723 166.764 11.3982 166.764 11.8221C166.775 12.3471 166.775 12.8468 166.775 13.3506V42.6507C166.775 43.1593 166.775 43.6556 166.764 44.156C166.764 44.6113 166.764 45.0283 166.759 45.4576C166.742 46.3272 166.662 47.1945 166.519 48.0525C166.388 48.8659 166.132 49.6545 165.761 50.3905C165.391 51.1078 164.909 51.7626 164.335 52.3304C163.761 52.9097 163.098 53.3931 162.37 53.7619C161.633 54.1343 160.843 54.3938 160.028 54.5317C159.161 54.673 158.283 54.7493 157.404 54.76C156.993 54.7695 156.562 54.775 156.144 54.775L154.622 54.7778L11.8569 54.775Z" fill="#020201"/>
<path d="M34.7734 28.421C34.7885 27.2525 35.0998 26.1067 35.6782 25.0904C36.2567 24.0741 37.0835 23.2202 38.0819 22.6081C37.4477 21.7049 36.611 20.9616 35.6383 20.4372C34.6656 19.9128 33.5837 19.6218 32.4786 19.5874C30.121 19.3406 27.8355 20.9941 26.6341 20.9941C25.4095 20.9941 23.5598 19.6119 21.5681 19.6527C20.2797 19.6942 19.0241 20.0678 17.9236 20.7371C16.8231 21.4064 15.9152 22.3485 15.2884 23.4717C12.5732 28.1595 14.5985 35.049 17.1994 38.8383C18.5007 40.6937 20.0216 42.7664 22.0116 42.6929C23.9589 42.6123 24.6862 41.4546 27.0368 41.4546C29.3656 41.4546 30.0479 42.6929 32.0783 42.6461C34.1679 42.6123 35.4844 40.7824 36.7401 38.9093C37.6751 37.5872 38.3945 36.126 38.8718 34.5798C37.6578 34.0678 36.6219 33.2108 35.893 32.1156C35.1642 31.0203 34.7748 29.7354 34.7734 28.421Z" fill="white"/>
<path d="M30.9398 17.0952C32.0791 15.7314 32.6404 13.9783 32.5045 12.2084C30.7638 12.3907 29.156 13.2203 28.0013 14.5318C27.4367 15.1726 27.0043 15.918 26.7288 16.7254C26.4533 17.5329 26.34 18.3866 26.3956 19.2378C27.2662 19.2467 28.1275 19.0585 28.9147 18.6874C29.7018 18.3163 30.3942 17.7719 30.9398 17.0952Z" fill="white"/>
<path d="M59.388 37.9955H52.7426L51.1467 42.6945H48.332L54.6264 25.3093H57.5508L63.8452 42.6945H60.9825L59.388 37.9955ZM53.4309 35.8271H58.6984L56.1017 28.201H56.029L53.4309 35.8271Z" fill="white"/>
<path d="M77.44 36.3576C77.44 40.2965 75.3259 42.8272 72.1355 42.8272C71.3273 42.8693 70.5236 42.6837 69.8163 42.2915C69.109 41.8993 68.5268 41.3164 68.1362 40.6096H68.0759V46.8877H65.4668V30.0194H67.9923V32.1276H68.0403C68.4487 31.4241 69.0408 30.8442 69.7535 30.4497C70.4662 30.0551 71.2728 29.8605 72.0875 29.8867C75.3135 29.8868 77.44 32.4297 77.44 36.3576ZM74.7583 36.3576C74.7583 33.7914 73.4284 32.1043 71.3993 32.1043C69.4058 32.1043 68.0649 33.827 68.0649 36.3576C68.0649 38.9116 69.4058 40.6219 71.3993 40.6219C73.4284 40.6219 74.7583 38.9471 74.7583 36.3576Z" fill="white"/>
<path d="M91.4283 36.3576C91.4283 40.2965 89.3142 42.8272 86.1238 42.8272C85.3156 42.8693 84.5119 42.6837 83.8046 42.2915C83.0973 41.8993 82.515 41.3164 82.1245 40.6096H82.0641V46.8877H79.4551V30.0193H81.9805V32.1275H82.0285C82.437 31.4241 83.029 30.8442 83.7417 30.4497C84.4544 30.0551 85.261 29.8605 86.0758 29.8867C89.3018 29.8867 91.4283 32.4297 91.4283 36.3576ZM88.7466 36.3576C88.7466 33.7914 87.4167 32.1043 85.3875 32.1043C83.3941 32.1043 82.0532 33.827 82.0532 36.3576C82.0532 38.9115 83.3941 40.6219 85.3875 40.6219C87.4167 40.6219 88.7466 38.9471 88.7466 36.3576H88.7466Z" fill="white"/>
<path d="M100.676 37.8505C100.869 39.5746 102.549 40.7065 104.844 40.7065C107.043 40.7065 108.625 39.5745 108.625 38.02C108.625 36.6706 107.671 35.8626 105.411 35.3089L103.152 34.7661C99.9504 33.995 98.4642 32.502 98.4642 30.0794C98.4642 27.0798 101.086 25.0194 104.808 25.0194C108.492 25.0194 111.017 27.0798 111.102 30.0794H108.469C108.311 28.3444 106.873 27.2972 104.771 27.2972C102.669 27.2972 101.231 28.3567 101.231 29.8989C101.231 31.128 102.15 31.8513 104.397 32.4049L106.317 32.8752C109.894 33.7188 111.381 35.1516 111.381 37.6946C111.381 40.9471 108.783 42.9842 104.65 42.9842C100.784 42.9842 98.1735 40.9949 98.0049 37.8504L100.676 37.8505Z" fill="white"/>
<path d="M117.012 27.0197V30.0193H119.429V32.0796H117.012V39.0673C117.012 40.1529 117.496 40.6587 118.558 40.6587C118.845 40.6537 119.131 40.6336 119.416 40.5985V42.6466C118.939 42.7356 118.453 42.7759 117.967 42.7669C115.394 42.7669 114.39 41.803 114.39 39.3448V32.0796H112.542V30.0193H114.39V27.0197H117.012Z" fill="white"/>
<path d="M120.827 36.3575C120.827 32.3695 123.183 29.8634 126.856 29.8634C130.541 29.8634 132.885 32.3694 132.885 36.3575C132.885 40.3566 130.553 42.8517 126.856 42.8517C123.159 42.8517 120.827 40.3566 120.827 36.3575ZM130.227 36.3575C130.227 33.6218 128.97 32.0072 126.856 32.0072C124.741 32.0072 123.486 33.6341 123.486 36.3575C123.486 39.1042 124.741 40.7066 126.856 40.7066C128.97 40.7066 130.227 39.1042 130.227 36.3575H130.227Z" fill="white"/>
<path d="M135.036 30.0194H137.525V32.1768H137.585C137.753 31.503 138.149 30.9075 138.706 30.4905C139.263 30.0734 139.946 29.8602 140.642 29.8867C140.943 29.8857 141.243 29.9182 141.536 29.9838V32.4174C141.157 32.3017 140.761 32.2486 140.364 32.2602C139.985 32.2448 139.607 32.3115 139.256 32.4555C138.906 32.5996 138.59 32.8176 138.332 33.0946C138.074 33.3717 137.878 33.7012 137.76 34.0605C137.641 34.4199 137.602 34.8005 137.645 35.1764V42.6945H135.036L135.036 30.0194Z" fill="white"/>
<path d="M153.566 38.9716C153.215 41.2726 150.968 42.8517 148.093 42.8517C144.396 42.8517 142.101 40.3812 142.101 36.4177C142.101 32.4419 144.408 29.8634 147.984 29.8634C151.5 29.8634 153.712 32.2724 153.712 36.1156V37.007H144.734V37.1642C144.693 37.6307 144.751 38.1006 144.906 38.5428C145.061 38.9849 145.308 39.3892 145.631 39.7288C145.955 40.0684 146.347 40.3354 146.782 40.5123C147.217 40.6891 147.684 40.7716 148.154 40.7544C148.77 40.812 149.389 40.6696 149.918 40.3484C150.447 40.0272 150.857 39.5443 151.089 38.9716L153.566 38.9716ZM144.747 35.1886H151.101C151.125 34.7692 151.061 34.3494 150.914 33.9557C150.767 33.562 150.54 33.2029 150.247 32.9008C149.955 32.5987 149.602 32.3603 149.213 32.2004C148.823 32.0405 148.405 31.9626 147.984 31.9716C147.559 31.9691 147.138 32.0505 146.744 32.2111C146.351 32.3718 145.994 32.6085 145.693 32.9075C145.392 33.2066 145.153 33.5622 144.991 33.9537C144.829 34.3452 144.746 34.7649 144.747 35.1886V35.1886Z" fill="white"/>
<path d="M53.105 12.2233C53.6519 12.1842 54.2008 12.2666 54.712 12.4646C55.2232 12.6626 55.684 12.9713 56.061 13.3684C56.4381 13.7654 56.7221 14.241 56.8925 14.7608C57.063 15.2806 57.1156 15.8316 57.0466 16.3741C57.0466 19.0429 55.6002 20.5769 53.105 20.5769H50.0791V12.2233H53.105ZM51.3802 19.3955H52.9596C53.3505 19.4188 53.7416 19.3549 54.1046 19.2085C54.4676 19.062 54.7932 18.8367 55.0579 18.5489C55.3225 18.2611 55.5194 17.9181 55.6344 17.5448C55.7493 17.1716 55.7793 16.7774 55.7222 16.3911C55.7752 16.0064 55.7421 15.6147 55.6254 15.2442C55.5087 14.8736 55.3113 14.5334 55.0473 14.2479C54.7832 13.9624 54.4591 13.7387 54.0982 13.5928C53.7373 13.4468 53.3485 13.3823 52.9596 13.4038H51.3802V19.3955Z" fill="white"/>
<path d="M58.5151 17.4221C58.4753 17.0078 58.5229 16.5898 58.6546 16.1949C58.7864 15.8 58.9994 15.4369 59.2801 15.1289C59.5608 14.8209 59.903 14.5749 60.2846 14.4065C60.6663 14.2381 61.079 14.1511 61.4964 14.1511C61.9137 14.1511 62.3265 14.2381 62.7081 14.4065C63.0898 14.5749 63.4319 14.8209 63.7126 15.1289C63.9934 15.4369 64.2064 15.8 64.3382 16.1949C64.4699 16.5898 64.5174 17.0078 64.4777 17.4221C64.5182 17.8368 64.4712 18.2553 64.3398 18.6509C64.2084 19.0464 63.9955 19.4102 63.7147 19.7187C63.4339 20.0273 63.0915 20.2739 62.7095 20.4426C62.3274 20.6114 61.9142 20.6986 61.4964 20.6986C61.0785 20.6986 60.6653 20.6114 60.2833 20.4426C59.9012 20.2739 59.5588 20.0273 59.278 19.7187C58.9973 19.4102 58.7843 19.0464 58.6529 18.6509C58.5215 18.2553 58.4746 17.8368 58.5151 17.4221ZM63.1944 17.4221C63.1944 16.0556 62.5788 15.2564 61.4984 15.2564C60.414 15.2564 59.8039 16.0556 59.8039 17.4221C59.8039 18.7995 60.414 19.5925 61.4984 19.5925C62.5788 19.5925 63.1944 18.794 63.1944 17.4221H63.1944Z" fill="white"/>
<path d="M72.405 20.5768H71.1108L69.8042 15.9338H69.7055L68.4044 20.5768H67.1225L65.3799 14.2727H66.6453L67.7778 19.0831H67.871L69.1708 14.2727H70.3677L71.6674 19.0831H71.7661L72.8931 14.2727H74.1407L72.405 20.5768Z" fill="white"/>
<path d="M75.6074 14.2727H76.8084V15.2741H76.9017C77.0598 14.9144 77.3266 14.6129 77.6648 14.4116C78.0029 14.2103 78.3957 14.1192 78.7882 14.151C79.0958 14.1279 79.4047 14.1742 79.6919 14.2863C79.9792 14.3984 80.2374 14.5736 80.4476 14.7988C80.6577 15.0239 80.8143 15.2934 80.9059 15.5871C80.9974 15.8809 81.0215 16.1914 80.9764 16.4957V20.5767H79.7287V16.8081C79.7287 15.795 79.2873 15.2912 78.3646 15.2912C78.1557 15.2815 77.9472 15.317 77.7534 15.3951C77.5596 15.4733 77.385 15.5923 77.2416 15.7441C77.0983 15.8958 76.9895 16.0767 76.9227 16.2742C76.856 16.4718 76.8329 16.6815 76.855 16.8888V20.5768H75.6074L75.6074 14.2727Z" fill="white"/>
<path d="M82.9639 11.8118H84.2115V20.5768H82.9639V11.8118Z" fill="white"/>
<path d="M85.9447 17.422C85.905 17.0077 85.9526 16.5897 86.0844 16.1948C86.2161 15.7999 86.4292 15.4368 86.71 15.1288C86.9907 14.8208 87.3329 14.5748 87.7146 14.4064C88.0962 14.238 88.509 14.151 88.9264 14.151C89.3437 14.151 89.7565 14.238 90.1382 14.4064C90.5199 14.5748 90.8621 14.8208 91.1428 15.1288C91.4235 15.4368 91.6366 15.7999 91.7684 16.1948C91.9002 16.5897 91.9477 17.0077 91.908 17.422C91.9484 17.8368 91.9014 18.2554 91.77 18.6509C91.6386 19.0464 91.4256 19.4102 91.1448 19.7187C90.864 20.0273 90.5216 20.2739 90.1395 20.4426C89.7575 20.6114 89.3442 20.6985 88.9264 20.6985C88.5085 20.6985 88.0953 20.6114 87.7132 20.4426C87.3312 20.2739 86.9887 20.0273 86.7079 19.7187C86.4271 19.4102 86.2142 19.0464 86.0827 18.6509C85.9513 18.2554 85.9043 17.8368 85.9447 17.422ZM90.624 17.422C90.624 16.0556 90.0084 15.2564 88.9281 15.2564C87.8436 15.2564 87.2335 16.0556 87.2335 17.4221C87.2335 18.7995 87.8436 19.5925 88.9281 19.5925C90.0084 19.5925 90.624 18.794 90.624 17.422H90.624Z" fill="white"/>
<path d="M93.2227 18.794C93.2227 17.6592 94.07 17.005 95.574 16.912L97.2864 16.8136V16.2695C97.2864 15.6036 96.8449 15.2277 95.9921 15.2277C95.2957 15.2277 94.8131 15.4826 94.6746 15.9283H93.4667C93.5942 14.8455 94.6156 14.151 96.0497 14.151C97.6346 14.151 98.5285 14.9378 98.5285 16.2695V20.5768H97.3275V19.6908H97.2288C97.0284 20.0086 96.7471 20.2677 96.4135 20.4416C96.0799 20.6155 95.706 20.698 95.3299 20.6806C95.0645 20.7082 94.7963 20.6799 94.5425 20.5978C94.2888 20.5156 94.0551 20.3813 93.8565 20.2035C93.658 20.0258 93.499 19.8085 93.3898 19.5657C93.2806 19.3229 93.2237 19.06 93.2227 18.794ZM97.2864 18.2553V17.7282L95.7426 17.8267C94.872 17.8848 94.4771 18.1801 94.4771 18.7358C94.4771 19.3032 94.9707 19.6334 95.6494 19.6334C95.8483 19.6535 96.0492 19.6335 96.2401 19.5745C96.431 19.5156 96.6081 19.419 96.7609 19.2904C96.9136 19.1618 97.0388 19.0039 97.1291 18.8261C97.2194 18.6483 97.2729 18.4541 97.2864 18.2553Z" fill="white"/>
<path d="M100.168 17.422C100.168 15.4301 101.195 14.1681 102.792 14.1681C103.187 14.15 103.579 14.2443 103.923 14.4402C104.266 14.6361 104.546 14.9253 104.731 15.2741H104.824V11.8118H106.072V20.5768H104.876V19.5808H104.777C104.579 19.9273 104.288 20.2129 103.939 20.4068C103.589 20.6007 103.192 20.6954 102.792 20.6807C101.184 20.6808 100.168 19.4188 100.168 17.422ZM101.457 17.422C101.457 18.7592 102.089 19.5637 103.146 19.5637C104.197 19.5637 104.847 18.7475 104.847 17.4275C104.847 16.1136 104.191 15.2858 103.146 15.2858C102.096 15.2858 101.457 16.0959 101.457 17.422H101.457Z" fill="white"/>
<path d="M111.233 17.4221C111.193 17.0078 111.241 16.5898 111.372 16.1949C111.504 15.8 111.717 15.4369 111.998 15.1289C112.279 14.8209 112.621 14.5749 113.002 14.4065C113.384 14.2381 113.797 14.1511 114.214 14.1511C114.631 14.1511 115.044 14.2381 115.426 14.4065C115.808 14.5749 116.15 14.8209 116.43 15.1289C116.711 15.4369 116.924 15.8 117.056 16.1949C117.188 16.5898 117.235 17.0078 117.195 17.4221C117.236 17.8368 117.189 18.2553 117.058 18.6509C116.926 19.0464 116.713 19.4102 116.432 19.7187C116.152 20.0273 115.809 20.2739 115.427 20.4426C115.045 20.6114 114.632 20.6986 114.214 20.6986C113.796 20.6986 113.383 20.6114 113.001 20.4426C112.619 20.2739 112.277 20.0273 111.996 19.7187C111.715 19.4102 111.502 19.0464 111.371 18.6509C111.239 18.2553 111.192 17.8368 111.233 17.4221ZM115.912 17.4221C115.912 16.0556 115.297 15.2564 114.216 15.2564C113.132 15.2564 112.522 16.0556 112.522 17.4221C112.522 18.7995 113.132 19.5925 114.216 19.5925C115.297 19.5925 115.912 18.794 115.912 17.4221Z" fill="white"/>
<path d="M118.87 14.2727H120.071V15.2741H120.164C120.323 14.9144 120.589 14.6129 120.927 14.4116C121.266 14.2103 121.658 14.1192 122.051 14.151C122.359 14.1279 122.667 14.1742 122.955 14.2863C123.242 14.3984 123.5 14.5736 123.71 14.7988C123.92 15.0239 124.077 15.2934 124.169 15.5871C124.26 15.8809 124.284 16.1914 124.239 16.4957V20.5767H122.991V16.8081C122.991 15.795 122.55 15.2912 121.627 15.2912C121.418 15.2815 121.21 15.317 121.016 15.3951C120.822 15.4733 120.648 15.5923 120.504 15.7441C120.361 15.8958 120.252 16.0767 120.185 16.2742C120.119 16.4718 120.096 16.6815 120.118 16.8888V20.5768H118.87V14.2727Z" fill="white"/>
<path d="M131.289 12.7031V14.3014H132.658V15.3493H131.289V18.5909C131.289 19.2513 131.562 19.5404 132.183 19.5404C132.342 19.5399 132.5 19.5303 132.658 19.5117V20.548C132.434 20.588 132.207 20.6093 131.98 20.6116C130.592 20.6116 130.04 20.1249 130.04 18.9095V15.3493H129.036V14.3013H130.04V12.7031H131.289Z" fill="white"/>
<path d="M134.362 11.8118H135.599V15.2858H135.698C135.864 14.9227 136.138 14.6195 136.483 14.4174C136.827 14.2153 137.227 14.1242 137.625 14.1565C137.931 14.1399 138.237 14.1908 138.521 14.3057C138.805 14.4206 139.06 14.5965 139.268 14.821C139.476 15.0454 139.632 15.3129 139.724 15.6043C139.817 15.8957 139.843 16.2038 139.802 16.5067V20.5768H138.554V16.8136C138.554 15.8067 138.083 15.2967 137.202 15.2967C136.987 15.2792 136.772 15.3086 136.57 15.3829C136.368 15.4571 136.185 15.5745 136.033 15.7267C135.882 15.879 135.765 16.0624 135.692 16.2642C135.619 16.466 135.591 16.6812 135.61 16.895V20.5768H134.362L134.362 11.8118Z" fill="white"/>
<path d="M147.077 18.8746C146.908 19.4508 146.54 19.9491 146.04 20.2826C145.539 20.616 144.936 20.7632 144.338 20.6984C143.921 20.7094 143.507 20.6298 143.125 20.4653C142.742 20.3008 142.4 20.0552 142.122 19.7456C141.845 19.436 141.638 19.0698 141.516 18.6725C141.394 18.2751 141.361 17.8561 141.418 17.4445C141.362 17.0317 141.396 16.6118 141.518 16.2133C141.639 15.8147 141.845 15.4468 142.121 15.1345C142.398 14.8222 142.738 14.5728 143.12 14.4031C143.501 14.2334 143.915 14.1474 144.332 14.151C146.091 14.151 147.153 15.3494 147.153 17.329V17.7631H142.689V17.8328C142.669 18.0642 142.698 18.297 142.774 18.5165C142.85 18.7359 142.971 18.9371 143.13 19.1072C143.288 19.2772 143.481 19.4123 143.695 19.5039C143.909 19.5954 144.139 19.6414 144.372 19.6388C144.671 19.6746 144.973 19.621 145.241 19.4849C145.509 19.3488 145.73 19.1363 145.876 18.8746L147.077 18.8746ZM142.688 16.843H145.882C145.897 16.6314 145.868 16.4189 145.797 16.2191C145.725 16.0193 145.613 15.8366 145.466 15.6828C145.32 15.529 145.142 15.4075 144.946 15.326C144.75 15.2446 144.538 15.205 144.325 15.2099C144.11 15.2072 143.896 15.2476 143.696 15.3287C143.496 15.4098 143.314 15.53 143.162 15.6822C143.009 15.8344 142.889 16.0155 142.807 16.2149C142.726 16.4142 142.686 16.6278 142.689 16.843H142.688Z" fill="white"/>
</g>
<defs>
<clipPath id="clip0_6973_3321">
<rect width="168" height="56" fill="white"/>
</clipPath>
</defs>
</svg>
