<svg width="189" height="56" viewBox="0 0 189 56" fill="none" xmlns="http://www.w3.org/2000/svg">
<g clip-path="url(#clip0_6973_3302)">
<path d="M182 0H7C3.13401 0 0 3.13401 0 7V49C0 52.866 3.13401 56 7 56H182C185.866 56 189 52.866 189 49V7C189 3.13401 185.866 0 182 0Z" fill="#020201"/>
<path d="M182 1.12C183.559 1.12 185.055 1.7395 186.158 2.84221C187.26 3.94493 187.88 5.44053 187.88 7V49C187.88 50.5595 187.26 52.0551 186.158 53.1578C185.055 54.2605 183.559 54.88 182 54.88H7C5.44053 54.88 3.94493 54.2605 2.84221 53.1578C1.7395 52.0551 1.12 50.5595 1.12 49V7C1.12 5.44053 1.7395 3.94493 2.84221 2.84221C3.94493 1.7395 5.44053 1.12 7 1.12H182ZM182 0H7C5.14348 0 3.36301 0.737498 2.05025 2.05025C0.737498 3.36301 0 5.14348 0 7V49C0 50.8565 0.737498 52.637 2.05025 53.9497C3.36301 55.2625 5.14348 56 7 56H182C183.857 56 185.637 55.2625 186.95 53.9497C188.262 52.637 189 50.8565 189 49V7C189 5.14348 188.262 3.36301 186.95 2.05025C185.637 0.737498 183.857 0 182 0Z" fill="#A6A6A6"/>
<path d="M66.3872 14.336C66.4101 14.8495 66.329 15.3622 66.1485 15.8434C65.9681 16.3246 65.6921 16.7643 65.3372 17.136C64.9394 17.5467 64.4595 17.8687 63.9287 18.081C63.398 18.2933 62.8283 18.3911 62.2572 18.368C61.6827 18.3809 61.1117 18.2756 60.5795 18.0589C60.0473 17.8422 59.5652 17.5186 59.1632 17.108C58.3474 16.2736 57.8906 15.153 57.8906 13.986C57.8906 12.8191 58.3474 11.6985 59.1632 10.864C59.7869 10.2546 60.5768 9.84308 61.4336 9.68117C62.2905 9.51927 63.1761 9.6142 63.9792 9.95405C64.484 10.1616 64.9343 10.4825 65.2952 10.892L64.5532 11.634C64.2751 11.2991 63.9229 11.0336 63.5243 10.8587C63.1257 10.6837 62.6919 10.604 62.2572 10.626C61.7084 10.6298 61.1689 10.768 60.6859 11.0284C60.2028 11.2889 59.7909 11.6636 59.4861 12.12C59.1814 12.5764 58.993 13.1005 58.9376 13.6465C58.8821 14.1924 58.9613 14.7437 59.168 15.252C59.3748 15.7603 59.703 16.2103 60.1238 16.5625C60.5446 16.9148 61.0453 17.1586 61.5821 17.2726C62.1189 17.3867 62.6755 17.3675 63.2031 17.2168C63.7308 17.0661 64.2136 16.7884 64.6092 16.408C65.0368 15.9392 65.2847 15.3342 65.3092 14.7H62.2572V13.692H66.3312C66.363 13.9054 66.3817 14.1204 66.3872 14.336Z" fill="white" stroke="white" stroke-width="0.411304" stroke-miterlimit="10"/>
<path d="M72.7988 10.8359H69.0188V13.4959H72.4628V14.5039H69.0188V17.1639H72.7988V18.1999H67.9268V9.79993H72.7988V10.8359Z" fill="white" stroke="white" stroke-width="0.411304" stroke-miterlimit="10"/>
<path d="M77.3919 18.1999H76.3139V10.8359H73.9619V9.79993H79.7999V10.8359H77.3919V18.1999Z" fill="white" stroke="white" stroke-width="0.411304" stroke-miterlimit="10"/>
<path d="M83.916 18.1999V9.79993H84.994V18.1999H83.916Z" fill="white" stroke="white" stroke-width="0.411304" stroke-miterlimit="10"/>
<path d="M89.7825 18.1999H88.7045V10.8359H86.3525V9.79993H92.1205V10.8359H89.7825V18.1999Z" fill="white" stroke="white" stroke-width="0.411304" stroke-miterlimit="10"/>
<path d="M103.054 17.108C102.65 17.5127 102.17 17.8337 101.641 18.0527C101.113 18.2718 100.546 18.3845 99.9742 18.3845C99.4022 18.3845 98.8357 18.2718 98.3072 18.0527C97.7787 17.8337 97.2986 17.5127 96.8942 17.108C96.1028 16.2666 95.6621 15.1551 95.6621 14C95.6621 12.8449 96.1028 11.7333 96.8942 10.892C97.2899 10.4759 97.7684 10.1475 98.299 9.92805C98.8296 9.70859 99.4003 9.60296 99.9742 9.61798C100.547 9.60892 101.116 9.71727 101.646 9.93637C102.176 10.1555 102.655 10.4807 103.054 10.892C103.457 11.3015 103.773 11.7875 103.985 12.3213C104.196 12.8551 104.299 13.4259 104.286 14C104.305 14.5748 104.205 15.1472 103.993 15.6818C103.781 16.2165 103.461 16.7019 103.054 17.108ZM97.6922 16.408C97.9905 16.7102 98.3458 16.9502 98.7375 17.114C99.1292 17.2778 99.5496 17.3621 99.9742 17.3621C100.399 17.3621 100.819 17.2778 101.211 17.114C101.603 16.9502 101.958 16.7102 102.256 16.408C102.86 15.7516 103.196 14.8921 103.196 14C103.196 13.1079 102.86 12.2484 102.256 11.592C101.958 11.2898 101.603 11.0498 101.211 10.886C100.819 10.7222 100.399 10.6379 99.9742 10.6379C99.5496 10.6379 99.1292 10.7222 98.7375 10.886C98.3458 11.0498 97.9905 11.2898 97.6922 11.592C97.0881 12.2484 96.7528 13.1079 96.7528 14C96.7528 14.8921 97.0881 15.7516 97.6922 16.408Z" fill="white" stroke="white" stroke-width="0.411304" stroke-miterlimit="10"/>
<path d="M105.812 18.1999V9.79993H107.114L111.202 16.3379V14.7139V9.79993H112.28V18.1999H111.16L106.89 11.3539V12.9639V18.1999H105.812Z" fill="white" stroke="white" stroke-width="0.411304" stroke-miterlimit="10"/>
<path d="M95.3975 30.45C94.2179 30.4528 93.0657 30.8053 92.0865 31.4629C91.1072 32.1206 90.345 33.0538 89.8962 34.1446C89.4473 35.2355 89.332 36.4349 89.5649 37.5913C89.7977 38.7476 90.3682 39.809 91.2042 40.6411C92.0403 41.4732 93.1043 42.0387 94.2617 42.2661C95.4192 42.4935 96.6181 42.3726 97.7068 41.9187C98.7955 41.4647 99.7251 40.6981 100.378 39.7158C101.031 38.7335 101.378 37.5796 101.376 36.4C101.387 35.6131 101.24 34.832 100.943 34.1031C100.646 33.3742 100.206 32.7125 99.6483 32.1573C99.0905 31.6022 98.4267 31.1649 97.6964 30.8716C96.9662 30.5783 96.1843 30.4349 95.3975 30.45ZM95.3975 40.012C94.6745 40.0626 93.953 39.8945 93.3269 39.5296C92.7007 39.1647 92.1988 38.6198 91.8863 37.9659C91.5739 37.3119 91.4655 36.5791 91.5751 35.8626C91.6846 35.1462 92.0072 34.4793 92.5009 33.9487C92.9945 33.418 93.6364 33.0482 94.343 32.8871C95.0496 32.7261 95.7884 32.7814 96.4632 33.0458C97.138 33.3101 97.7176 33.7714 98.1268 34.3696C98.536 34.9678 98.7557 35.6753 98.7575 36.4C98.7801 36.8593 98.7104 37.3183 98.5527 37.7502C98.395 38.1821 98.1525 38.578 97.8393 38.9147C97.5261 39.2513 97.1488 39.5219 96.7294 39.7103C96.31 39.8988 95.8572 40.0014 95.3975 40.012ZM82.3495 30.45C81.1699 30.4528 80.0177 30.8053 79.0385 31.4629C78.0592 32.1206 77.297 33.0538 76.8482 34.1446C76.3993 35.2355 76.284 36.4349 76.5169 37.5913C76.7497 38.7476 77.3202 39.809 78.1562 40.6411C78.9923 41.4732 80.0563 42.0387 81.2137 42.2661C82.3712 42.4935 83.5701 42.3726 84.6588 41.9187C85.7475 41.4647 86.6771 40.6981 87.3302 39.7158C87.9832 38.7335 88.3303 37.5796 88.3275 36.4C88.3389 35.6131 88.1919 34.832 87.8952 34.1031C87.5984 33.3742 87.158 32.7125 86.6003 32.1573C86.0425 31.6022 85.3787 31.1649 84.6484 30.8716C83.9182 30.5783 83.1363 30.4349 82.3495 30.45ZM82.3495 40.012C81.6265 40.0626 80.905 39.8945 80.2789 39.5296C79.6527 39.1647 79.1508 38.6198 78.8383 37.9659C78.5259 37.3119 78.4175 36.5791 78.5271 35.8626C78.6366 35.1462 78.9592 34.4793 79.4529 33.9487C79.9465 33.418 80.5884 33.0482 81.295 32.8871C82.0016 32.7261 82.7404 32.7814 83.4152 33.0458C84.09 33.3101 84.6696 33.7714 85.0788 34.3696C85.488 34.9678 85.7077 35.6753 85.7095 36.4C85.7321 36.8593 85.6624 37.3183 85.5047 37.7502C85.347 38.1821 85.1045 38.578 84.7913 38.9147C84.4782 39.2513 84.1008 39.5219 83.6814 39.7103C83.262 39.8988 82.8092 40.0014 82.3495 40.012ZM66.8375 32.284V34.804H72.8855C72.7907 35.991 72.2973 37.111 71.4855 37.982C70.8788 38.6002 70.1491 39.084 69.3437 39.4024C68.5382 39.7207 67.6748 39.8664 66.8095 39.83C65.0273 39.83 63.318 39.122 62.0577 37.8618C60.7975 36.6016 60.0895 34.8923 60.0895 33.11C60.0895 31.3278 60.7975 29.6185 62.0577 28.3583C63.318 27.098 65.0273 26.39 66.8095 26.39C68.5181 26.3646 70.168 27.0135 71.4015 28.196L73.1795 26.418C72.3451 25.5927 71.3544 24.9423 70.2653 24.5048C69.1763 24.0672 68.011 23.8514 66.8375 23.87C65.5929 23.8216 64.3513 24.0249 63.1872 24.4678C62.023 24.9107 60.9603 25.584 60.0626 26.4475C59.1649 27.3109 58.4507 28.3467 57.9629 29.4927C57.4751 30.6388 57.2236 31.8715 57.2236 33.117C57.2236 34.3626 57.4751 35.5953 57.9629 36.7414C58.4507 37.8874 59.1649 38.9232 60.0626 39.7866C60.9603 40.6501 62.023 41.3234 63.1872 41.7663C64.3513 42.2092 65.5929 42.4125 66.8375 42.364C68.0351 42.4119 69.2293 42.2058 70.3416 41.7595C71.4539 41.3131 72.4592 40.6365 73.2915 39.774C74.7617 38.159 75.545 36.0349 75.4755 33.852C75.4805 33.3267 75.4383 32.8019 75.3495 32.284H66.8375ZM130.272 34.244C129.906 33.1699 129.224 32.2319 128.314 31.5544C127.404 30.8769 126.309 30.4918 125.176 30.45C124.41 30.4485 123.652 30.6041 122.948 30.9072C122.245 31.2102 121.611 31.6543 121.087 32.212C120.562 32.7696 120.157 33.429 119.897 34.1494C119.637 34.8697 119.528 35.6357 119.576 36.4C119.564 37.678 119.965 38.9256 120.721 39.9564C121.476 40.9872 122.545 41.7459 123.767 42.1192C124.99 42.4925 126.3 42.4604 127.503 42.0276C128.705 41.5948 129.735 40.7846 130.44 39.718L128.41 38.318C128.107 38.8224 127.678 39.2389 127.164 39.5263C126.651 39.8136 126.072 39.9618 125.484 39.956C124.877 39.9811 124.277 39.822 123.762 39.4997C123.247 39.1774 122.842 38.7069 122.6 38.15L130.566 34.86L130.272 34.244ZM122.152 36.232C122.123 35.7972 122.182 35.361 122.324 34.9491C122.466 34.5372 122.689 34.1578 122.98 33.8332C123.271 33.5085 123.623 33.2452 124.017 33.0585C124.411 32.8718 124.838 32.7656 125.274 32.746C125.725 32.7185 126.174 32.8247 126.565 33.0513C126.956 33.278 127.271 33.6149 127.472 34.02L122.152 36.232ZM115.684 42H118.302V24.5H115.684V42ZM111.4 31.78H111.302C110.91 31.3346 110.428 30.979 109.887 30.7373C109.345 30.4957 108.758 30.3738 108.166 30.38C106.636 30.4542 105.193 31.1142 104.136 32.2233C103.08 33.3323 102.49 34.8053 102.49 36.337C102.49 37.8688 103.08 39.3418 104.136 40.4508C105.193 41.5598 106.636 42.2198 108.166 42.294C108.759 42.3059 109.348 42.1866 109.89 41.9446C110.432 41.7026 110.914 41.3439 111.302 40.894H111.4V41.748C111.4 44.03 110.182 45.248 108.222 45.248C107.567 45.2337 106.931 45.025 106.395 44.6486C105.859 44.2722 105.447 43.745 105.212 43.134L102.944 44.072C103.363 45.1252 104.092 46.0263 105.034 46.6562C105.977 47.2862 107.088 47.6153 108.222 47.6C111.288 47.6 113.822 45.794 113.822 41.398V30.8H111.4V31.78ZM108.39 40.012C107.472 39.9549 106.611 39.5502 105.982 38.8804C105.353 38.2106 105.002 37.3261 105.002 36.407C105.002 35.488 105.353 34.6035 105.982 33.9337C106.611 33.2639 107.472 32.8592 108.39 32.802C108.838 32.8214 109.278 32.9307 109.683 33.1235C110.088 33.3163 110.45 33.5887 110.748 33.9244C111.046 34.2601 111.273 34.6522 111.416 35.0775C111.56 35.5028 111.616 35.9526 111.582 36.4C111.62 36.849 111.566 37.3011 111.425 37.7289C111.283 38.1566 111.057 38.5513 110.758 38.8889C110.46 39.2266 110.096 39.5002 109.689 39.6932C109.282 39.8863 108.84 39.9947 108.39 40.012ZM142.536 24.5H136.264V42H138.882V35.364H142.536C143.282 35.4176 144.031 35.317 144.736 35.0683C145.442 34.8196 146.089 34.4282 146.636 33.9185C147.184 33.4089 147.62 32.7919 147.919 32.106C148.218 31.4201 148.372 30.6801 148.372 29.932C148.372 29.184 148.218 28.4439 147.919 27.7581C147.62 27.0722 147.184 26.4552 146.636 25.9455C146.089 25.4359 145.442 25.0445 144.736 24.7958C144.031 24.5471 143.282 24.4464 142.536 24.5ZM142.536 32.9H138.882V26.936H142.592C142.985 26.936 143.375 27.0135 143.738 27.1641C144.102 27.3147 144.432 27.5353 144.71 27.8135C144.988 28.0917 145.209 28.422 145.359 28.7855C145.51 29.149 145.588 29.5386 145.588 29.932C145.588 30.3255 145.51 30.7151 145.359 31.0786C145.209 31.4421 144.988 31.7723 144.71 32.0505C144.432 32.3287 144.102 32.5494 143.738 32.7C143.375 32.8505 142.985 32.928 142.592 32.928L142.536 32.9ZM158.692 30.394C157.738 30.3353 156.788 30.5572 155.96 31.0325C155.131 31.5077 154.46 32.2154 154.03 33.068L156.34 34.034C156.573 33.6132 156.923 33.269 157.348 33.0429C157.773 32.8168 158.254 32.7186 158.734 32.76C159.066 32.7212 159.403 32.749 159.724 32.8417C160.046 32.9344 160.345 33.0902 160.606 33.3C160.867 33.5098 161.083 33.7695 161.242 34.0637C161.401 34.358 161.5 34.6811 161.534 35.014V35.182C160.692 34.7395 159.755 34.5089 158.804 34.51C156.312 34.51 153.764 35.91 153.764 38.458C153.788 38.9996 153.921 39.5307 154.155 40.0198C154.389 40.5089 154.719 40.946 155.125 41.3051C155.531 41.6642 156.005 41.9381 156.52 42.1104C157.034 42.2826 157.577 42.3499 158.118 42.308C158.774 42.3444 159.429 42.2053 160.015 41.9052C160.6 41.6051 161.095 41.1546 161.45 40.6H161.534V42H164.054V35.266C164.054 32.2 161.73 30.422 158.748 30.422L158.692 30.394ZM158.37 39.984C157.516 39.984 156.326 39.55 156.326 38.5C156.326 37.1 157.81 36.624 159.126 36.624C159.957 36.6035 160.779 36.8066 161.506 37.212C161.418 37.9723 161.057 38.675 160.491 39.1898C159.924 39.7047 159.191 39.9968 158.426 40.012L158.37 39.984ZM173.238 30.8L170.242 38.388H170.158L167.05 30.8H164.25L168.912 41.412L166.252 47.306H168.982L176.15 30.8H173.238ZM149.718 42H152.322V24.5H149.718V42Z" fill="white"/>
<path d="M14.6171 10.556C14.1558 11.1015 13.9204 11.8027 13.9591 12.516V43.484C13.9115 44.1985 14.148 44.903 14.6171 45.444L14.7151 45.556L32.0611 28.21V27.79L14.7151 10.458L14.6171 10.556Z" fill="url(#paint0_linear_6973_3302)"/>
<path d="M37.7996 33.9921L32.0596 28.2101V27.7901L37.7996 22.0081L37.9256 22.0921L44.7996 25.9841C46.7596 27.0901 46.7596 28.9101 44.7996 30.0301L37.9536 33.9221L37.7996 33.9921Z" fill="url(#paint1_linear_6973_3302)"/>
<path d="M37.9672 33.908L32.0592 28L14.6152 45.444C15.0108 45.7961 15.5172 45.9987 16.0465 46.0166C16.5758 46.0345 17.0947 45.8666 17.5132 45.542L37.9672 33.908Z" fill="url(#paint2_linear_6973_3302)"/>
<path d="M37.9672 22.0921L17.5132 10.4721C17.0975 10.1429 16.579 9.97093 16.0489 9.9863C15.5189 10.0017 15.0112 10.2034 14.6152 10.5561L32.0592 28.0001L37.9672 22.0921Z" fill="url(#paint3_linear_6973_3302)"/>
<path opacity="0.2" d="M37.7992 33.782L17.5132 45.332C17.11 45.6363 16.6185 45.801 16.1132 45.801C15.608 45.801 15.1165 45.6363 14.7132 45.332L14.6152 45.43L14.7132 45.542C15.1165 45.8463 15.608 46.011 16.1132 46.011C16.6185 46.011 17.11 45.8463 17.5132 45.542L37.9672 33.908L37.7992 33.782Z" fill="#020201"/>
<path opacity="0.12" d="M14.6152 45.2479C14.1656 44.6926 13.9452 43.9864 13.9992 43.2739V43.4839C13.9516 44.1985 14.1881 44.9029 14.6572 45.4439L14.7552 45.3459L14.6152 45.2479Z" fill="#020201"/>
<path opacity="0.12" d="M44.7998 29.82L37.7998 33.782L37.9258 33.908L44.7998 30.016C45.2056 29.8444 45.5576 29.5666 45.8187 29.2118C46.0799 28.8571 46.2406 28.4384 46.2838 28C46.1963 28.3984 46.0164 28.7707 45.7586 29.0868C45.5009 29.4029 45.1724 29.6541 44.7998 29.82Z" fill="#020201"/>
<path opacity="0.25" d="M17.514 10.6679L44.8 26.1799C45.1726 26.3459 45.5011 26.597 45.7588 26.9132C46.0166 27.2293 46.1965 27.6015 46.284 27.9999C46.2408 27.5615 46.0801 27.1429 45.8189 26.7881C45.5578 26.4333 45.2058 26.1555 44.8 25.9839L17.514 10.4719C15.568 9.35194 13.958 10.2759 13.958 12.5159V12.7259C14 10.4859 15.568 9.56195 17.514 10.6679Z" fill="white"/>
</g>
<defs>
<linearGradient id="paint0_linear_6973_3302" x1="30.5211" y1="12.194" x2="7.02915" y2="35.686" gradientUnits="userSpaceOnUse">
<stop stop-color="#00A0FF"/>
<stop offset="0.01" stop-color="#00A1FF"/>
<stop offset="0.26" stop-color="#00BEFF"/>
<stop offset="0.51" stop-color="#00D2FF"/>
<stop offset="0.76" stop-color="#00DFFF"/>
<stop offset="1" stop-color="#00E3FF"/>
</linearGradient>
<linearGradient id="paint1_linear_6973_3302" x1="47.3616" y1="28.0001" x2="13.4956" y2="28.0001" gradientUnits="userSpaceOnUse">
<stop stop-color="#FFE000"/>
<stop offset="0.41" stop-color="#FFBD00"/>
<stop offset="0.78" stop-color="#FFA500"/>
<stop offset="1" stop-color="#FF9C00"/>
</linearGradient>
<linearGradient id="paint2_linear_6973_3302" x1="34.7612" y1="31.22" x2="2.89723" y2="63.07" gradientUnits="userSpaceOnUse">
<stop stop-color="#FF3A44"/>
<stop offset="1" stop-color="#C31162"/>
</linearGradient>
<linearGradient id="paint3_linear_6973_3302" x1="10.2192" y1="0.252057" x2="24.4432" y2="14.4761" gradientUnits="userSpaceOnUse">
<stop stop-color="#32A071"/>
<stop offset="0.07" stop-color="#2DA771"/>
<stop offset="0.48" stop-color="#15CF74"/>
<stop offset="0.8" stop-color="#06E775"/>
<stop offset="1" stop-color="#00F076"/>
</linearGradient>
<clipPath id="clip0_6973_3302">
<rect width="189" height="56" rx="8" fill="white"/>
</clipPath>
</defs>
</svg>
